<svg viewBox="0 0 1025 357" fill="none" xmlns="http://www.w3.org/2000/svg">
<path d="M69.5801 62.1172H111.328V99.2266H69.5801C61.9108 99.2266 55.3548 101.948 49.9121 107.391C44.4694 112.833 41.748 119.389 41.748 127.059C41.748 134.728 44.4694 141.284 49.9121 146.727C55.3548 152.169 61.9108 154.891 69.5801 154.891H111.328V192H69.5801C51.6439 192 36.3363 185.66 23.6572 172.981C10.9782 160.302 4.63867 144.995 4.63867 127.059C4.63867 109.122 10.9782 93.8148 23.6572 81.1357C36.3363 68.4567 51.6439 62.1172 69.5801 62.1172ZM212.147 192C194.211 192 178.903 185.66 166.224 172.981C153.545 160.302 147.205 144.995 147.205 127.059C147.205 109.122 153.545 93.8148 166.224 81.1357C178.903 68.4567 194.211 62.1172 212.147 62.1172C230.083 62.1172 245.391 68.4567 258.07 81.1357C270.749 93.8148 277.088 109.122 277.088 127.059C277.088 144.995 270.749 160.302 258.07 172.981C245.391 185.66 230.083 192 212.147 192ZM212.147 154.891C219.816 154.891 226.372 152.169 231.815 146.727C237.258 141.284 239.979 134.728 239.979 127.059C239.979 119.389 237.258 112.833 231.815 107.391C226.372 101.948 219.816 99.2266 212.147 99.2266C204.478 99.2266 197.922 101.948 192.479 107.391C187.036 112.833 184.315 119.389 184.315 127.059C184.315 134.728 187.036 141.284 192.479 146.727C197.922 152.169 204.478 154.891 212.147 154.891ZM312.966 192V62.1172H377.907C415.016 62.1172 433.571 83.7643 433.571 127.059C433.571 170.353 415.016 192 377.907 192H312.966ZM350.075 99.2266V154.891H377.907C390.277 154.891 396.462 145.613 396.462 127.059C396.462 108.504 390.277 99.2266 377.907 99.2266H350.075ZM571.499 62.1172V99.2266H506.558V108.504H552.945V145.613H506.558V154.891H571.499V192H469.448V62.1172H571.499ZM672.318 154.891C678.503 154.891 681.595 151.798 681.595 145.613C681.595 139.428 678.503 136.336 672.318 136.336H644.486V154.891H672.318ZM663.041 108.504C669.226 108.504 672.318 106.185 672.318 101.546C672.318 96.9072 669.226 94.5879 663.041 94.5879H644.486V108.504H663.041ZM663.041 62.1172C681.595 62.1172 694.738 68.3021 702.469 80.6719C705.995 86.3001 707.757 91.9284 707.757 97.5566C707.757 104.298 705.222 111.04 700.15 117.781C712.52 123.966 718.705 133.243 718.705 145.613C718.705 176.538 703.242 192 672.318 192H607.377V62.1172H663.041ZM819.523 192C801.587 192 786.28 185.66 773.601 172.981C760.922 160.302 754.582 144.995 754.582 127.059C754.582 109.122 760.922 93.8148 773.601 81.1357C786.28 68.4567 801.587 62.1172 819.523 62.1172C837.46 62.1172 852.767 68.4567 865.446 81.1357C878.125 93.8148 884.465 109.122 884.465 127.059C884.465 144.995 878.125 160.302 865.446 172.981C852.767 185.66 837.46 192 819.523 192ZM819.523 154.891C827.193 154.891 833.749 152.169 839.191 146.727C844.634 141.284 847.355 134.728 847.355 127.059C847.355 119.389 844.634 112.833 839.191 107.391C833.749 101.948 827.193 99.2266 819.523 99.2266C811.854 99.2266 805.298 101.948 799.855 107.391C794.413 112.833 791.691 119.389 791.691 127.059C791.691 134.728 794.413 141.284 799.855 146.727C805.298 152.169 811.854 154.891 819.523 154.891ZM936.114 130.677L933.887 127.059L889.727 62.1172H931.753L954.39 95.8867L977.491 62.1172H1019.61L976.006 127.337L973.223 131.512V192H936.114V130.677Z" fill="#C76214"/>
<path d="M110.62 289.12V223.46H131.06V289.12C131.06 301.44 136.94 307.88 148.7 307.88C160.6 307.88 166.34 301.44 166.34 289.12V223.46H186.92V289.12C186.92 307.04 177.54 317.82 163.96 322.16C159.34 323.7 154.16 324.4 148.7 324.4C130.78 324.4 118.88 316.98 113.42 304.38C111.6 300.04 110.62 294.86 110.62 289.12ZM223.77 323V223.46H244.35L284.39 289.12V223.46H304.83V323H284.25L244.35 257.48V323H223.77ZM341.971 323V223.46H362.411V323H341.971ZM397.37 223.46H420.19L442.59 298.36L465.13 223.46H487.95L453.37 323H431.95L397.37 223.46ZM522.593 323V223.46H589.233V240.12H543.173V263.78H582.513V279.88H543.173V306.48H589.373V323H522.593ZM624.935 323V223.46H662.035C678.835 223.46 691.015 228.92 696.195 240.54C697.875 244.32 698.715 248.66 698.715 253.56C698.715 268.96 691.435 276.52 680.935 281.42L702.495 322.02V323H680.515L661.895 286.6H645.515V323H624.935ZM645.515 269.94H662.035C671.975 269.94 678.275 265.04 678.275 255.24C678.275 245.3 672.395 240.12 662.035 240.12H645.515V269.94ZM735.441 291.64H756.021C756.021 303.68 763.721 308.16 775.621 308.16C784.161 308.16 791.161 305.08 791.161 296.82C791.161 289.68 786.821 287.16 781.501 284.78C778.981 283.66 775.761 282.54 771.701 281.28C759.101 277.22 746.781 272.04 741.041 261.26C739.361 258.04 738.521 254.26 738.521 249.92C738.521 235.36 748.881 227.66 760.361 224.16C764.841 222.76 769.741 222.06 775.201 222.06C791.861 222.06 803.761 229.2 809.081 240.54C810.761 244.32 811.741 248.38 811.741 252.86H791.301C791.301 243.2 784.721 238.44 774.781 238.44C766.101 238.44 758.961 241.66 758.961 250.06C758.961 253.28 760.641 256.08 764.001 258.32C767.361 260.56 772.261 262.52 778.701 264.48C792.001 268.54 804.601 274 809.641 285.76C811.041 288.98 811.741 292.62 811.741 296.68C811.741 311.38 802.361 319.08 790.601 322.44C786.121 323.7 781.081 324.4 775.621 324.4C756.441 324.4 742.161 316.14 737.121 301.86C736.001 298.78 735.441 295.42 735.441 291.64ZM847.53 323V223.46H914.17V240.12H868.11V263.78H907.45V279.88H868.11V306.48H914.31V323H847.53Z" fill="#D4936B"/>
</svg>
